<?xml version="1.0" standalone="no"?>
<!DOCTYPE svg PUBLIC "-//W3C//DTD SVG 20010904//EN"
 "http://www.w3.org/TR/2001/REC-SVG-20010904/DTD/svg10.dtd">
<svg version="1.0" xmlns="http://www.w3.org/2000/svg"
 width="260.000000pt" height="260.000000pt" viewBox="0 0 260.000000 260.000000"
 preserveAspectRatio="xMidYMid meet">
<metadata>
Created by potrace 1.11, written by Peter Selinger 2001-2013
</metadata>
<g transform="translate(0.000000,260.000000) scale(0.100000,-0.100000)"
fill="#000000" stroke="none">
<path d="M1230 2558 c0 -4 -19 -8 -43 -8 -24 0 -47 -3 -51 -7 -4 -5 -11 -8
-14 -8 -4 -1 -17 -6 -28 -13 -12 -6 -24 -8 -28 -4 -4 3 -11 0 -16 -8 -5 -8
-15 -15 -22 -16 -21 -1 -78 -28 -78 -36 0 -4 -5 -8 -10 -8 -12 0 -114 -70
-118 -82 -2 -4 -8 -6 -13 -2 -5 3 -9 1 -9 -5 0 -5 -9 -13 -20 -16 -11 -3 -20
-13 -20 -21 0 -8 -4 -12 -10 -9 -5 3 -10 2 -10 -2 0 -5 -25 -28 -55 -51 -47
-37 -55 -48 -51 -70 2 -15 5 -27 6 -27 1 0 6 -17 13 -47 1 -7 6 -19 10 -25 5
-7 6 -17 2 -22 -3 -5 -1 -12 5 -16 6 -4 8 -11 5 -16 -4 -5 -1 -9 5 -9 6 0 10
-6 9 -12 -1 -7 3 -26 10 -43 7 -16 14 -45 15 -62 2 -18 8 -39 15 -47 15 -18 5
-41 -41 -88 -21 -21 -36 -43 -33 -49 4 -5 0 -9 -7 -9 -8 0 -22 -15 -33 -32
-10 -18 -27 -39 -37 -46 -10 -7 -16 -18 -13 -23 4 -5 2 -9 -4 -9 -6 0 -13 -11
-17 -25 -3 -14 -10 -25 -15 -25 -5 0 -9 -7 -9 -14 0 -8 -13 -35 -29 -58 -16
-24 -33 -56 -36 -70 -4 -15 -13 -32 -21 -39 -8 -6 -14 -20 -14 -29 0 -10 -4
-20 -10 -22 -5 -1 -11 -12 -13 -23 -1 -11 -6 -26 -10 -32 -5 -7 -5 -13 0 -13
4 0 3 -4 -2 -8 -12 -8 -75 -191 -104 -302 -29 -112 -71 -335 -71 -378 0 -21
-2 -41 -5 -44 -3 -3 -8 -39 -11 -79 -2 -41 -7 -101 -9 -134 -9 -129 -10 -241
-2 -252 7 -9 264 -12 1108 -12 l1098 0 3 132 c3 137 -11 308 -37 462 -9 50
-20 116 -26 148 -12 71 -36 167 -56 227 -9 25 -17 55 -18 66 -2 12 -8 31 -14
42 -6 11 -11 30 -11 41 0 12 -5 21 -11 21 -5 0 -7 5 -4 10 3 6 1 10 -5 10 -6
0 -9 4 -5 9 3 5 1 12 -5 16 -5 3 -10 17 -10 31 0 13 -4 24 -10 24 -5 0 -13 12
-16 26 -4 14 -15 42 -24 62 -10 20 -16 41 -13 46 4 5 2 6 -4 3 -5 -3 -15 11
-23 31 -7 20 -16 39 -20 42 -3 3 -22 32 -40 65 -19 33 -40 66 -47 73 -7 7 -13
17 -13 22 0 5 -11 20 -25 34 -14 14 -25 30 -25 36 0 5 -3 10 -7 10 -5 0 -17
13 -28 29 -10 16 -22 28 -26 25 -4 -2 -10 5 -14 16 -3 11 -11 20 -16 20 -5 0
-9 7 -9 17 0 24 33 127 42 131 5 2 6 7 3 12 -3 4 3 30 12 56 16 50 24 77 24
81 0 2 6 21 14 42 l14 40 -70 73 c-38 40 -69 70 -69 66 0 -4 -10 3 -23 15 -39
37 -77 67 -85 67 -5 0 -18 9 -30 21 -12 11 -26 18 -31 15 -5 -3 -14 1 -21 9
-7 8 -16 12 -21 9 -5 -3 -9 0 -9 5 0 6 -8 11 -18 11 -10 0 -23 5 -30 12 -7 7
-12 9 -12 6 0 -4 -12 -1 -26 7 -15 7 -32 11 -39 9 -7 -3 -16 -1 -20 5 -3 6
-28 11 -56 11 -27 0 -49 4 -49 9 0 5 -22 9 -50 8 -27 0 -50 -4 -50 -9z"/>
</g>
</svg>
